<svg width="86" height="84" viewBox="0 0 86 84" fill="none" xmlns="http://www.w3.org/2000/svg">
<g clip-path="url(#clip0_727_7106)">
<path d="M42.3291 82.801C37.2424 82.801 33.104 78.6626 33.104 73.5759C33.104 72.9724 33.6213 72.4551 34.2248 72.4551C34.8283 72.4551 35.3456 72.9724 35.3456 73.5759C35.3456 77.4125 38.4494 80.5163 42.286 80.5163C46.1226 80.5163 49.2264 77.4125 49.2264 73.5759C49.2264 72.9724 49.7437 72.4551 50.3472 72.4551C50.9507 72.4551 51.468 72.9724 51.468 73.5759C51.468 78.6626 47.3296 82.801 42.2429 82.801H42.3291Z" fill="#1F68F2"/>
<path d="M42.33 83.2315C37.0277 83.2315 32.6738 78.9207 32.6738 73.5753C32.6738 72.7132 33.3636 72.0234 34.2257 72.0234C35.0879 72.0234 35.7776 72.7132 35.7776 73.5753C35.7776 77.1964 38.7089 80.0846 42.2869 80.0846C45.8648 80.0846 48.7962 77.1533 48.7962 73.5753C48.7962 72.7132 49.4859 72.0234 50.3481 72.0234C51.2102 72.0234 51.9 72.7132 51.9 73.5753C51.9 78.8776 47.5892 83.2315 42.2438 83.2315H42.33ZM34.2688 72.8856C33.8809 72.8856 33.5791 73.1873 33.5791 73.5753C33.5791 78.4034 37.5019 82.3693 42.3731 82.3693C47.2443 82.3693 51.1671 78.4465 51.1671 73.5753C51.1671 73.1873 50.8654 72.8856 50.4774 72.8856C50.0894 72.8856 49.7877 73.1873 49.7877 73.5753C49.7877 77.6275 46.4684 80.9468 42.4162 80.9468C38.3641 80.9468 35.0448 77.6275 35.0448 73.5753C35.0448 73.1873 34.743 72.8856 34.355 72.8856H34.2688Z" fill="#1F68F2"/>
<path d="M42.3326 74.4384C40.7807 74.4384 39.2288 74.3522 37.7201 74.2228L17.2869 72.3692H5.25982C4.0528 72.3692 2.88888 71.895 2.06983 70.9898C1.25078 70.1276 0.819703 68.9637 0.862811 67.7567C0.992134 65.4288 2.9751 63.6183 5.43225 63.6183H7.67386C12.3726 63.6183 16.2523 59.7817 16.2523 55.0398L16.2523 32.322C16.2523 17.9239 27.9346 6.2417 42.3326 6.2417C56.7306 6.2417 68.4129 17.9239 68.4129 32.322V55.0398C68.4129 59.7386 72.2495 63.6183 76.9914 63.6183H80.5693C82.7678 63.6183 84.7077 65.1702 85.0525 67.2394C85.2681 68.5326 84.9232 69.8258 84.1042 70.8173C83.2851 71.8088 82.035 72.3692 80.7418 72.3692L67.2921 72.3692L46.9883 74.2228C45.4364 74.3522 43.8845 74.4384 42.3757 74.4384H42.3326ZM5.47536 65.8599C4.26833 65.8599 3.23374 66.7652 3.19064 67.8429C3.19064 68.4464 3.36307 69.0068 3.75104 69.4379C4.13901 69.8689 4.69941 70.0845 5.30292 70.0845H17.4162L37.9356 71.9381C40.8669 72.1968 43.8414 72.1968 46.7727 71.9381L67.2059 70.0845H80.7418C81.3884 70.0845 81.9488 69.8258 82.3798 69.3085C82.7678 68.8344 82.9403 68.1877 82.854 67.5411C82.6816 66.5496 81.6901 65.8168 80.5693 65.8168H76.9914C71.0425 65.8168 66.1713 60.9456 66.1713 54.9967V32.2789C66.1713 19.131 55.4805 8.48331 42.3757 8.48331C29.2709 8.48331 18.5802 19.1741 18.5802 32.2789V54.9967C18.5802 60.9456 13.709 65.8168 7.76007 65.8168H5.51846L5.47536 65.8599Z" fill="white"/>
<path d="M42.3326 74.8269C40.7807 74.8269 39.1857 74.7407 37.677 74.6114L17.2869 72.7577H5.25983C3.96659 72.7577 2.67335 72.2404 1.76809 71.249C0.862823 70.3006 0.388636 69.0073 0.474851 67.671C0.604175 65.1276 2.80268 63.1447 5.43226 63.1447H7.67387C12.1571 63.1447 15.8213 59.4805 15.8213 54.9973L15.8213 32.2794C15.8213 17.6658 27.719 5.76807 42.3326 5.76807C56.9462 5.76807 68.844 17.6658 68.844 32.2794V54.9973C68.844 59.4805 72.5081 63.1447 76.9914 63.1447L80.5693 63.1447C82.9834 63.1447 85.0956 64.8259 85.4836 67.1106C85.7423 68.5332 85.3543 69.9557 84.449 71.0334C83.5438 72.1111 82.2074 72.7577 80.7849 72.7577H67.3352L47.0745 74.6114C45.5226 74.7407 43.9707 74.8269 42.4188 74.8269H42.3326ZM17.2869 71.9387L37.7201 73.7923C40.7376 74.051 43.8845 74.051 46.9021 73.7923L67.2059 71.9387H80.6986C81.8626 71.9387 82.9834 71.4214 83.7162 70.5161C84.449 69.6109 84.7939 68.4469 84.5784 67.283C84.2766 65.4294 82.5092 64.0499 80.4831 64.0499H76.9051C71.9477 64.0499 67.9387 60.0409 67.9387 55.0835V32.3656C67.9387 18.2262 56.4289 6.71644 42.2895 6.71644C28.1501 6.71644 16.6834 18.2262 16.6834 32.3656V55.0835C16.6834 60.0409 12.6744 64.0499 7.71698 64.0499H5.47537C3.27686 64.0499 1.46633 65.688 1.33701 67.8003C1.2939 68.878 1.68187 69.9557 2.41471 70.7317C3.14754 71.5076 4.18213 71.9818 5.30294 71.9818H17.33L17.2869 71.9387ZM42.3326 72.5853C40.8238 72.5853 39.3582 72.4991 37.8494 72.3698L17.33 70.5161H5.25983C4.5701 70.5161 3.88038 70.2575 3.40619 69.7402C2.932 69.2229 2.67335 68.5763 2.71646 67.8434C2.80268 66.5071 4.0097 65.4294 5.43226 65.4294H7.67387C13.4072 65.4294 18.0629 60.7737 18.0629 55.0404V32.3225C18.0629 18.9591 28.9261 8.09589 42.2895 8.09589C55.653 8.09589 66.5161 18.9591 66.5161 32.3225V55.0404C66.5161 60.7737 71.1718 65.4294 76.9051 65.4294H80.4831C81.8195 65.4294 82.9834 66.3347 83.1558 67.4986C83.2851 68.2745 83.1127 69.0073 82.5954 69.6109C82.1212 70.1713 81.3884 70.5161 80.6555 70.5161H67.1197L46.7296 72.3698C45.264 72.4991 43.7552 72.5853 42.2464 72.5853H42.3326ZM5.47537 66.2915C4.48389 66.2915 3.66484 67.0244 3.57862 67.8865C3.57862 68.3607 3.70794 68.7918 4.05281 69.1367C4.35456 69.4815 4.82875 69.654 5.25983 69.654H17.3731L37.9356 71.5076C40.8669 71.7663 43.7983 71.7663 46.7296 71.5076L67.1197 69.654H80.6986C81.2159 69.654 81.6901 69.4384 81.9919 69.0505C82.3367 68.6625 82.4661 68.1452 82.3799 67.6279C82.2505 66.8519 81.4315 66.2484 80.5262 66.2484H76.9483C70.7407 66.2484 65.6971 61.2048 65.6971 54.9973V32.2794C65.6971 19.3902 55.2219 8.87183 42.2895 8.87183C29.3571 8.87183 18.8819 19.3471 18.8819 32.2794V54.9973C18.8819 61.2048 13.8383 66.2484 7.63076 66.2484H5.38915L5.47537 66.2915Z" fill="white"/>
<path d="M42.3273 17.4935C41.7238 17.4935 41.2065 16.9762 41.2065 16.3727V2.31954C41.2065 1.71603 41.7238 1.19873 42.3273 1.19873C42.9309 1.19873 43.4482 1.71603 43.4482 2.31954V16.3296C43.4482 16.9331 42.9309 17.4504 42.3273 17.4504V17.4935Z" fill="#1F68F2"/>
<path d="M42.3292 17.8809C41.4671 17.8809 40.7773 17.1912 40.7773 16.329V2.31897C40.7773 1.45682 41.4671 0.76709 42.3292 0.76709C43.1914 0.76709 43.8811 1.45682 43.8811 2.31897V16.329C43.8811 17.1912 43.1914 17.8809 42.3292 17.8809ZM42.3292 1.62925C41.9413 1.62925 41.6395 1.931 41.6395 2.31897V16.329C41.6395 16.717 41.9413 17.0188 42.3292 17.0188C42.7172 17.0188 43.019 16.717 43.019 16.329V2.31897C43.019 1.931 42.7172 1.62925 42.3292 1.62925Z" fill="#1F68F2"/>
</g>
<defs>
<clipPath id="clip0_727_7106">
<rect width="85.0519" height="82.4654" fill="white" transform="translate(0.474121 0.76709)"/>
</clipPath>
</defs>
</svg>
