<svg width="86" height="82" viewBox="0 0 86 82" fill="none" xmlns="http://www.w3.org/2000/svg">
<g clip-path="url(#clip0_727_7090)">
<path d="M42.9563 81.1051C42.5193 81.1051 42.0823 80.8417 41.9075 80.4027L21.1941 29.7393C21.0193 29.3441 21.1067 28.949 21.3252 28.5978L42.0386 1.37829C42.4319 0.895367 43.1311 0.76366 43.6554 1.15878C44.1798 1.5539 44.2672 2.25634 43.8739 2.78317L23.5975 29.4759L44.0487 79.4807C44.2672 80.0515 44.0487 80.7539 43.4369 80.9734C43.3058 81.0173 43.1311 81.0612 43 81.0612L42.9563 81.1051Z" fill="#1F68F2"/>
<path d="M42.9563 81.5C42.3008 81.5 41.7327 81.1049 41.5142 80.5342L20.8008 29.9147C20.5823 29.3878 20.6697 28.8171 21.0193 28.3342L41.7327 1.11467C41.9949 0.763453 42.3445 0.543941 42.7815 0.500038C43.2184 0.456136 43.6117 0.543941 43.9613 0.807355C44.3109 1.07077 44.5294 1.42199 44.5731 1.86101C44.6168 2.30004 44.5294 2.69516 44.2672 3.04638L24.1219 29.5634L44.4857 79.3488C44.8353 80.139 44.442 81.061 43.6117 81.4122C43.4369 81.5 43.2184 81.5439 43 81.5439L42.9563 81.5ZM42.9563 1.37809C42.9563 1.37809 42.9126 1.37809 42.8689 1.37809C42.6941 1.37809 42.5193 1.50979 42.3882 1.6415L21.6747 28.861C21.6747 28.861 21.4999 29.3439 21.5873 29.5634L42.3008 80.183C42.4319 80.5342 42.8689 80.7098 43.2184 80.5781C43.568 80.4464 43.7428 80.0073 43.6117 79.6561L23.2042 29.6513C23.2042 29.6513 23.2042 29.3439 23.2479 29.2122L43.5243 2.51955C43.5243 2.51955 43.6991 2.16833 43.6554 1.99272C43.6554 1.81711 43.5243 1.6415 43.3932 1.50979C43.2621 1.42199 43.131 1.37809 42.9563 1.37809Z" fill="#1F68F2"/>
<path d="M43 81.105C43 81.105 42.6941 81.105 42.563 81.0172C41.9949 80.7538 41.689 80.0952 41.9512 79.5245L62.4024 29.5196L42.0823 2.78303C41.689 2.3001 41.7764 1.55376 42.3008 1.15864C42.8252 0.763518 43.5244 0.851323 43.9177 1.37815L64.6311 28.5977C64.8933 28.905 64.937 29.344 64.7622 29.7391L44.0488 80.3586C43.874 80.7977 43.437 81.0611 43 81.0611V81.105Z" fill="#1F68F2"/>
<path d="M42.9998 81.5C42.9998 81.5 42.6065 81.5 42.388 81.3683C41.6014 81.0171 41.2081 80.0952 41.514 79.3049L61.8778 29.5196L41.7325 3.04638C41.4703 2.69516 41.3829 2.30004 41.4266 1.86101C41.4703 1.42199 41.6888 1.07077 42.0384 0.807355C42.388 0.543941 42.7813 0.456136 43.2183 0.500038C43.6552 0.543941 44.0048 0.763453 44.267 1.11467L64.9804 28.3342C65.33 28.7732 65.4174 29.3878 65.1989 29.9147L44.4855 80.5342C44.2233 81.1488 43.6552 81.5 43.0435 81.5H42.9998ZM42.9998 1.37809C42.9998 1.37809 42.6939 1.42199 42.5628 1.50979C42.388 1.6415 42.3006 1.81711 42.3006 1.99272C42.3006 2.16833 42.3006 2.38784 42.4317 2.51955L62.7081 29.2122C62.7081 29.2122 62.8392 29.4756 62.7518 29.6513L42.3006 79.6561C42.1695 80.0074 42.3006 80.4464 42.6939 80.5781C43.0435 80.7098 43.4804 80.5781 43.6115 80.183L64.325 29.5635C64.4124 29.3439 64.3687 29.0366 64.2376 28.861L43.5678 1.6415C43.5678 1.6415 43.262 1.37809 43.0872 1.37809H42.9998Z" fill="#1F68F2"/>
<path d="M84.4268 30.4856H1.57319C0.961402 30.4856 0.437012 29.9587 0.437012 29.3441C0.437012 28.7295 0.961402 28.2026 1.57319 28.2026H84.4268C85.0386 28.2026 85.563 28.7295 85.563 29.3441C85.563 29.9587 85.0386 30.4856 84.4268 30.4856Z" fill="#1F68F2"/>
<path d="M84.4268 30.8807H1.57317C0.699187 30.8807 0 30.1783 0 29.3002C0 28.4222 0.699187 27.7197 1.57317 27.7197H84.4268C85.3008 27.7197 86 28.4222 86 29.3002C86 30.1783 85.3008 30.8807 84.4268 30.8807ZM1.57317 28.5978C1.17988 28.5978 0.873984 28.9051 0.873984 29.3002C0.873984 29.6953 1.17988 30.0027 1.57317 30.0027H84.4268C84.8201 30.0027 85.126 29.6953 85.126 29.3002C85.126 28.9051 84.8201 28.5978 84.4268 28.5978H1.57317Z" fill="#1F68F2"/>
<path d="M42.9558 81.1048C42.6062 81.1048 42.3003 80.9292 42.0818 80.6658L0.698719 30.0463C0.349125 29.6512 0.349125 29.0365 0.698719 28.5975L21.3684 1.37799C21.5869 1.07067 21.9365 0.938965 22.2861 0.938965H64.5869C64.9365 0.938965 65.2861 1.11457 65.5046 1.42189L85.344 29.0365C85.6499 29.4755 85.6499 30.0463 85.3003 30.4414L43.8298 80.6658C43.6113 80.9292 43.3054 81.0609 42.9558 81.0609V81.1048ZM3.01478 29.2999L42.9558 78.1634L82.9406 29.6951L63.9751 3.22189H22.8542L3.01478 29.2999Z" fill="white"/>
<path d="M42.956 81.5C42.4753 81.5 42.0383 81.2805 41.7324 80.9293L0.349288 30.3098C-0.131403 29.739 -0.131403 28.9488 0.349288 28.3341L21.019 1.11463C21.3249 0.719512 21.8056 0.5 22.2863 0.5H64.5871C65.1115 0.5 65.5485 0.763415 65.8544 1.15854L85.6938 28.7732C86.1308 29.3439 86.0871 30.1341 85.6501 30.7049L44.2233 80.9293C43.9174 81.2805 43.4804 81.5 42.9997 81.5H42.956ZM22.2863 1.37805C22.0678 1.37805 21.8493 1.46585 21.7182 1.64146L1.00478 28.861C0.78628 29.1244 0.829979 29.4756 1.00478 29.739L42.3879 80.3585C42.3879 80.3585 42.7375 80.6219 42.956 80.6219C43.1745 80.6219 43.3493 80.5341 43.5241 80.3585L84.9946 30.1341C85.2131 29.8707 85.2131 29.5195 84.9946 29.2561L65.1552 1.64146C65.1552 1.64146 64.8056 1.33415 64.5871 1.33415H22.2863V1.37805ZM42.956 78.5585C42.956 78.5585 42.6938 78.5146 42.6064 78.3829L2.70904 29.5634C2.70904 29.5634 2.57795 29.1683 2.70904 29.0366L22.5048 2.95854C22.5048 2.95854 22.7233 2.78293 22.8544 2.78293H63.9753C63.9753 2.78293 64.2375 2.87073 64.3249 2.95854L83.334 29.3878C83.334 29.3878 83.4214 29.7829 83.334 29.9146L43.3493 78.3829C43.3493 78.3829 43.1308 78.5585 42.9997 78.5585H42.956ZM3.58303 29.3L42.956 77.461L82.4164 29.6512L63.7568 3.66098H23.0292L3.58303 29.3Z" fill="white"/>
</g>
<defs>
<clipPath id="clip0_727_7090">
<rect width="86" height="81" fill="white" transform="translate(0 0.5)"/>
</clipPath>
</defs>
</svg>
