<svg width="88" height="80" viewBox="0 0 88 80" fill="none" xmlns="http://www.w3.org/2000/svg">
<path d="M64.868 0.500283C54.2031 0.500283 48.6473 5.62162 43.8362 14.192C39.0399 5.62162 33.4841 0.500283 22.8341 0.500283C10.218 0.500283 0 10.743 0 23.3746C0 31.0491 2.54706 38.1264 8.25186 45.5024C16.3548 56.193 29.5816 65.8235 42.6446 78.918C43.3893 79.6645 44.5958 79.6645 45.3555 78.918C66.3873 57.8354 88 45.5024 88 23.5239C87.7021 10.728 77.4841 0.485352 64.868 0.485352V0.500283ZM43.8511 74.8717C23.4299 54.8492 3.75355 43.0985 3.75355 23.3746C3.75355 12.8333 12.3182 4.2629 22.8192 4.2629C31.8307 4.2629 36.6418 8.02551 42.1977 19.0147C42.9425 20.3735 44.8937 20.3735 45.5044 19.0147C51.0603 8.02551 55.8714 4.2629 64.8829 4.2629C75.3988 4.2629 84.1124 12.8482 84.1124 23.3746C83.9634 43.0985 64.2871 54.6849 43.8659 74.8567L43.8511 74.8717Z" fill="white"/>
</svg>
