<svg width="54" height="82" viewBox="0 0 54 82" fill="none" xmlns="http://www.w3.org/2000/svg">
<g clip-path="url(#clip0_727_7125)">
<path d="M3.74516 82C3.49386 82 3.24156 81.9301 3.01818 81.7874C2.48368 81.4451 2.25831 80.7774 2.4767 80.1816L13.9786 48.8036H1.85244C1.4386 48.8036 1.04868 48.614 0.7924 48.2896C0.536116 47.9652 0.442378 47.5411 0.537113 47.1389L11.4427 1.04094C11.5873 0.43015 12.1317 0 12.758 0H44.2151C44.6878 0 45.1266 0.247511 45.3719 0.65271C45.6172 1.05791 45.6322 1.56092 45.4128 1.98109L30.314 30.852H52.146C52.6925 30.852 53.1861 31.1814 53.3955 31.6874C53.6049 32.1934 53.4892 32.7752 53.1023 33.1625L4.70148 81.6038C4.44021 81.8653 4.09418 82 3.74516 82ZM3.56167 46.0969H15.9132C16.3549 46.0969 16.7688 46.3125 17.0221 46.6758C17.2754 47.0381 17.3352 47.5012 17.1826 47.9163L7.12771 75.3481L48.8841 33.5577H28.0822C27.6095 33.5577 27.1707 33.3102 26.9254 32.905C26.6801 32.4998 26.6652 31.9968 26.8845 31.5766L41.9824 2.70665H13.828L3.56167 46.0969Z" fill="white"/>
</g>
<defs>
<clipPath id="clip0_727_7125">
<rect width="53" height="82" fill="white" transform="translate(0.5)"/>
</clipPath>
</defs>
</svg>
