<svg width="84" height="80" viewBox="0 0 84 80" fill="none" xmlns="http://www.w3.org/2000/svg">
<g clip-path="url(#clip0_727_7119)">
<path d="M17.2903 79.1163C17.0767 79.1163 16.8204 79.031 16.6496 78.9029C16.2651 78.6042 16.0942 78.092 16.2224 77.6652L25.4066 49.4113L1.39942 31.9553C1.01497 31.6566 0.844097 31.1444 0.972249 30.7176C1.1004 30.2482 1.57029 29.9494 2.04019 29.9494H31.7715L40.9558 1.69548C41.1266 1.226 41.5538 0.927246 42.0237 0.927246C42.4936 0.927246 42.9208 1.226 43.0917 1.69548L52.2759 29.9494H82.0072C82.4771 29.9494 82.9043 30.2482 83.0752 30.7176C83.246 31.1871 83.0752 31.6993 82.648 31.9553L58.5981 49.4113L67.7823 77.6652C67.9105 78.1347 67.7823 78.6469 67.3552 78.9029C66.9707 79.2017 66.4154 79.2017 66.0309 78.9029L41.981 61.447L17.9311 78.9029C17.9311 78.9029 17.5039 79.1163 17.2903 79.1163ZM5.5003 32.1687L27.4144 48.0882C27.7988 48.387 27.9697 48.8991 27.8415 49.3259L19.4689 75.0618L41.383 59.1423C41.7674 58.8435 42.3227 58.8435 42.7072 59.1423L64.6212 75.0618L56.2486 49.3259C56.0778 48.8565 56.2486 48.3443 56.6758 48.0882L78.5899 32.1687H51.507C51.0371 32.1687 50.6099 31.87 50.439 31.4005L42.0664 5.66468L33.6938 31.4005C33.5229 31.87 33.0958 32.1687 32.6259 32.1687H5.5003Z" fill="white"/>
<path d="M17.2884 79.5C16.9467 79.5 16.6476 79.4146 16.3913 79.2012C15.836 78.8171 15.6224 78.1342 15.836 77.4941L24.9348 49.5389L1.1412 32.2963C0.585877 31.9122 0.37229 31.2293 0.585877 30.5891C0.799465 29.9489 1.39751 29.5221 2.03827 29.5221H31.4279L40.5267 1.56699C40.7403 0.926796 41.3383 0.5 41.9791 0.5C42.6198 0.5 43.2179 0.926796 43.4315 1.56699L52.5303 29.5221H81.9199C82.6034 29.5221 83.1587 29.9489 83.3723 30.5891C83.5859 31.2293 83.3723 31.9122 82.817 32.2963L59.0233 49.5816L68.1222 77.5367C68.3357 78.1769 68.1222 78.8598 67.5668 79.2439C67.0115 79.628 66.2853 79.628 65.7727 79.2439L41.9791 61.9587L18.1855 79.2439C17.9292 79.4573 17.5874 79.5427 17.2884 79.5427V79.5ZM2.03827 30.3331C1.73925 30.3331 1.48294 30.5465 1.35479 30.8025C1.26936 31.1013 1.35479 31.4001 1.6111 31.5708L25.661 49.0267C25.661 49.0267 25.8746 49.3255 25.8319 49.4962L16.6476 77.7501C16.5622 78.0489 16.6476 78.3476 16.9039 78.5184C17.1602 78.6891 17.502 78.6891 17.7156 78.5184L41.7655 61.0624C41.7655 61.0624 42.1072 60.977 42.2781 61.0624L66.328 78.5184C66.5843 78.6891 66.8834 78.6891 67.1397 78.5184C67.396 78.3476 67.4814 78.0062 67.396 77.7501L58.2117 49.4962C58.2117 49.4962 58.2117 49.1548 58.3826 49.0267L82.4325 31.5708C82.6888 31.4001 82.7742 31.0586 82.6888 30.8025C82.6034 30.5038 82.3471 30.3331 82.0053 30.3331H52.274C52.274 30.3331 51.9322 30.205 51.8895 30.0343L42.6626 1.82307C42.5771 1.52431 42.3208 1.35359 41.9791 1.35359C41.6373 1.35359 41.4238 1.56699 41.2956 1.82307L32.1114 30.077C32.1114 30.077 31.8978 30.3757 31.7269 30.3757H2.03827V30.3331ZM64.5766 75.4881C64.5766 75.4881 64.4057 75.4881 64.3203 75.4027L42.4063 59.4832C42.15 59.3125 41.8509 59.3125 41.5946 59.4832L19.6806 75.4027C19.6806 75.4027 19.3388 75.5308 19.168 75.4027C19.0398 75.3174 18.9544 75.104 18.9971 74.9333L27.3697 49.1975C27.4552 48.8987 27.3697 48.5999 27.1134 48.4292L5.24208 32.5097C5.24208 32.5097 5.02849 32.211 5.07121 32.0402C5.11393 31.8695 5.2848 31.7415 5.45567 31.7415H32.5385C32.8376 31.7415 33.0939 31.5281 33.222 31.272L41.5946 5.5362C41.7228 5.19476 42.2781 5.19476 42.4063 5.5362L50.7789 31.272C50.8643 31.5708 51.1206 31.7415 51.4624 31.7415H78.5452C78.5452 31.7415 78.887 31.8695 78.9297 32.0402C78.9724 32.211 78.9297 32.3817 78.7588 32.5097L56.8448 48.4292C56.5884 48.5999 56.503 48.9414 56.5885 49.1975L64.9611 74.9333C64.9611 74.9333 64.9611 75.2747 64.7902 75.4027C64.7048 75.4454 64.6193 75.4881 64.5339 75.4881H64.5766ZM6.77991 32.5951L27.626 47.7463C28.1813 48.1305 28.3949 48.8133 28.1813 49.4535L20.1932 73.9516L41.0393 58.8004C41.5946 58.4163 42.3208 58.4163 42.8334 58.8004L63.6795 73.9516L55.6914 49.4535C55.4778 48.8133 55.6914 48.1305 56.2467 47.7463L77.0928 32.5951H51.2915C50.608 32.5951 50.0527 32.1683 49.8391 31.5281L41.8509 7.02998L33.8628 31.5281C33.6492 32.1683 33.0511 32.5951 32.4104 32.5951H6.77991Z" fill="white"/>
</g>
<defs>
<clipPath id="clip0_727_7119">
<rect width="83" height="79" fill="white" transform="translate(0.5 0.5)"/>
</clipPath>
</defs>
</svg>
