<svg width="38" height="38" viewBox="0 0 38 38" fill="none" xmlns="http://www.w3.org/2000/svg">
<path d="M19 15.4375C17.0359 15.4375 15.4375 17.0359 15.4375 19C15.4375 20.9641 17.0359 22.5625 19 22.5625C20.9641 22.5625 22.5625 20.9641 22.5625 19C22.5625 17.0359 20.9641 15.4375 19 15.4375ZM7.125 15.4375C5.16087 15.4375 3.5625 17.0359 3.5625 19C3.5625 20.9641 5.16087 22.5625 7.125 22.5625C9.08913 22.5625 10.6875 20.9641 10.6875 19C10.6875 17.0359 9.08913 15.4375 7.125 15.4375ZM30.875 15.4375C28.9109 15.4375 27.3125 17.0359 27.3125 19C27.3125 20.9641 28.9109 22.5625 30.875 22.5625C32.8391 22.5625 34.4375 20.9641 34.4375 19C34.4375 17.0359 32.8391 15.4375 30.875 15.4375Z" fill="#F6F6F6"/>
</svg>
