<svg width="32" height="32" viewBox="0 0 32 32" fill="none" xmlns="http://www.w3.org/2000/svg">
<path d="M16 0C7.164 0 0 7.163 0 16C0 24.836 7.164 32 16 32C24.837 32 32 24.836 32 16C32 7.163 24.837 0 16 0ZM16 30C8.28 30 2 23.72 2 16C2 8.28 8.28 2 16 2C23.72 2 30.031 8.28 30.031 16C30.031 23.72 23.72 30 16 30Z" fill="#212121"/>
<path d="M22.2999 12.3929L16.0149 18.5879L9.72987 12.3919C9.33587 12.0009 8.69587 12.0009 8.30087 12.3919C7.90687 12.7829 7.90687 13.4159 8.30087 13.8059L15.2999 20.7059C15.6839 21.0859 16.3439 21.0869 16.7289 20.7059L23.7279 13.8069C24.1219 13.4159 24.1219 12.7829 23.7279 12.3929C23.3339 12.0029 22.6949 12.0029 22.2999 12.3929Z" fill="#212121"/>
</svg>
