<svg width="19" height="19" viewBox="0 0 19 19" fill="none" xmlns="http://www.w3.org/2000/svg">
<g clip-path="url(#clip0_645_6687)">
<path d="M9.5 1.48438C13.9199 1.48438 17.5156 5.08013 17.5156 9.5C17.5156 13.9199 13.9199 17.5156 9.5 17.5156C5.08013 17.5156 1.48438 13.9199 1.48438 9.5C1.48438 5.08013 5.08013 1.48438 9.5 1.48438ZM9.5 0.59375C4.58167 0.59375 0.59375 4.58137 0.59375 9.5C0.59375 14.4186 4.58167 18.4062 9.5 18.4062C14.4183 18.4062 18.4062 14.4186 18.4062 9.5C18.4062 4.58137 14.4183 0.59375 9.5 0.59375Z" fill="#F6F6F6"/>
<path d="M13.0586 8.5335L8.31636 5.41245C7.49788 4.87392 6.82812 5.23522 6.82812 6.2149V12.7833C6.82812 13.7629 7.49877 14.1254 8.31873 13.589L13.0566 10.4884C13.8762 9.95137 13.8771 9.07203 13.0586 8.5335ZM12.4266 9.83351L8.21542 12.5894C7.9423 12.7684 7.71875 12.6476 7.71875 12.321V6.67684C7.71875 6.35028 7.942 6.23004 8.21483 6.40965L12.4275 9.18187C12.7003 9.36118 12.7 9.6545 12.4266 9.83351Z" fill="#F6F6F6"/>
</g>
<defs>
<clipPath id="clip0_645_6687">
<rect width="19" height="19" fill="white"/>
</clipPath>
</defs>
</svg>
