<svg width="24" height="25" viewBox="0 0 24 25" fill="none" xmlns="http://www.w3.org/2000/svg">
<g clip-path="url(#clip0_645_6675)">
<path d="M23.8332 23.5382L14.7488 14.5382C15.8282 13.322 16.5331 11.8198 16.7788 10.2124C17.0245 8.60501 16.8005 6.96085 16.1337 5.47777C15.467 3.99469 14.3858 2.73587 13.0205 1.85277C11.6551 0.969672 10.0636 0.499919 8.43758 0.500033C7.32909 0.49694 6.231 0.713767 5.20688 1.13796C4.18277 1.56215 3.25297 2.18529 2.47133 2.97128C1.29131 4.15129 0.487701 5.65471 0.162132 7.29144C-0.163437 8.92816 0.00365393 10.6247 0.642274 12.1664C1.28089 13.7082 2.36236 15.026 3.74991 15.9531C5.13747 16.8802 6.76879 17.375 8.43758 17.375C10.4612 17.3801 12.4181 16.6521 13.9463 15.3257L23.042 24.3369C23.0937 24.3919 23.156 24.4359 23.2252 24.4663C23.2943 24.4967 23.3688 24.5129 23.4444 24.5138C23.5199 24.5148 23.5948 24.5005 23.6647 24.4719C23.7346 24.4433 23.798 24.4009 23.8512 24.3472C23.9043 24.2936 23.9461 24.2298 23.9741 24.1596C24.002 24.0895 24.0156 24.0144 24.0139 23.9389C24.0122 23.8634 23.9954 23.789 23.9643 23.7201C23.9333 23.6513 23.8887 23.5894 23.8332 23.5382ZM3.26633 14.1088C1.89522 12.7375 1.12495 10.8777 1.12495 8.93847C1.12495 6.99927 1.89522 5.13948 3.26633 3.76816C4.63758 2.39666 6.49749 1.62606 8.43691 1.62588C9.39722 1.62579 10.3481 1.81485 11.2354 2.18227C12.1226 2.54968 12.9288 3.08824 13.6079 3.76722C14.287 4.4462 14.8257 5.25228 15.1933 6.13945C15.5608 7.02662 15.7501 7.9775 15.7502 8.93781C15.7503 9.89811 15.5612 10.849 15.1938 11.7363C14.8264 12.6235 14.2878 13.4297 13.6088 14.1088C12.2375 15.4799 10.3777 16.2502 8.43851 16.2502C6.49932 16.2502 4.63953 15.4799 3.2682 14.1088H3.26633Z" fill="#F6F6F6"/>
</g>
<defs>
<clipPath id="clip0_645_6675">
<rect width="24" height="24.0139" fill="white" transform="translate(0 0.5)"/>
</clipPath>
</defs>
</svg>
