<svg width="19" height="19" viewBox="0 0 19 19" fill="none" xmlns="http://www.w3.org/2000/svg">
<path fill-rule="evenodd" clip-rule="evenodd" d="M11.95 3.20715C10.3326 2.88928 8.66773 2.88928 7.05037 3.20715C5.59346 3.49348 4.55225 4.7546 4.55225 6.21059V15.2534C4.55225 15.8422 5.20846 16.2327 5.74646 15.9214L8.26944 14.4612C9.02991 14.0211 9.97041 14.0211 10.7309 14.4612L13.2539 15.9214C13.7919 16.2327 14.4481 15.8422 14.4481 15.2534V6.21059C14.4481 4.7546 13.4069 3.49348 11.95 3.20715ZM6.82136 2.04194C8.5899 1.69436 10.4104 1.69435 12.1789 2.04194C14.1836 2.43592 15.6356 4.17774 15.6356 6.21059V15.2534C15.6356 16.7805 13.9682 17.7068 12.6591 16.9492L10.136 15.489C9.7436 15.2618 9.25673 15.2618 8.8643 15.489L6.34129 16.9492C5.03211 17.7068 3.36475 16.7805 3.36475 15.2534V6.21059C3.36475 4.17774 4.81676 2.43592 6.82136 2.04194Z" fill="#F6F6F6"/>
</svg>
