<svg width="19" height="19" viewBox="0 0 19 19" fill="none" xmlns="http://www.w3.org/2000/svg">
<g clip-path="url(#clip0_645_6683)">
<path d="M16.7438 2.25609C15.9577 1.46873 14.9579 0.929429 13.8682 0.705094C12.7785 0.48076 11.6469 0.581257 10.6138 0.994122C9.58065 1.40699 8.69147 2.11405 8.05651 3.02762C7.42155 3.94118 7.06875 5.02105 7.04187 6.13328L1.24094 13.4542C0.786547 14.045 0.562627 14.7809 0.610956 15.5247C0.659285 16.2685 0.976562 16.9692 1.50359 17.4963C2.03061 18.0233 2.73138 18.3406 3.47514 18.3889C4.21889 18.4372 4.95483 18.2133 5.54562 17.7589L12.8666 11.958C13.9788 11.9311 15.0587 11.5783 15.9722 10.9433C16.8858 10.3084 17.5929 9.41919 18.0057 8.38608C18.4186 7.35297 18.5191 6.22139 18.2947 5.13168C18.0704 4.04198 17.5311 3.04211 16.7438 2.25609ZM4.81531 16.8267C4.45336 17.1054 4.00242 17.2429 3.54656 17.2137C3.09069 17.1844 2.66102 16.9904 2.33766 16.6678C2.01429 16.3451 1.81929 15.9159 1.78901 15.4601C1.75874 15.0043 1.89526 14.553 2.17312 14.1905L7.23781 7.78984C7.49893 8.73939 8.00235 9.60478 8.69871 10.3011C9.39506 10.9975 10.2604 11.5009 11.21 11.762L4.81531 16.8267ZM9.56531 9.46422C8.93591 8.83478 8.50729 8.03285 8.33365 7.15982C8.16001 6.28679 8.24915 5.38188 8.5898 4.55951C8.93045 3.73714 9.5073 3.03425 10.2474 2.53972C10.9875 2.0452 11.8577 1.78125 12.7478 1.78125C13.6379 1.78125 14.5081 2.0452 15.2482 2.53972C15.9883 3.03425 16.5652 3.73714 16.9058 4.55951C17.2465 5.38188 17.3356 6.28679 17.162 7.15982C16.9883 8.03285 16.5597 8.83478 15.9303 9.46422C15.511 9.8852 15.0128 10.2192 14.4641 10.4472C13.9154 10.6751 13.3271 10.7924 12.733 10.7924C12.1388 10.7924 11.5505 10.6751 11.0018 10.4472C10.4532 10.2192 9.95489 9.8852 9.53562 9.46422H9.56531Z" fill="#F6F6F6"/>
</g>
<defs>
<clipPath id="clip0_645_6683">
<rect width="19" height="19" fill="white"/>
</clipPath>
</defs>
</svg>
