<svg width="19" height="19" viewBox="0 0 19 19" fill="none" xmlns="http://www.w3.org/2000/svg">
<path d="M8.43786 2.55738C8.97952 2.07072 9.80092 2.07072 10.3426 2.55738L15.5676 7.25184C15.8684 7.5221 16.0402 7.90745 16.0402 8.31184V15.0133C16.0402 15.8003 15.4022 16.4383 14.6152 16.4383H12.2402C11.4533 16.4383 10.8152 15.8003 10.8152 15.0133V11.6883C10.8152 11.4259 10.6025 11.2133 10.3402 11.2133H8.44023C8.1779 11.2133 7.96523 11.4259 7.96523 11.6883V15.0133C7.96523 15.8003 7.32724 16.4383 6.54023 16.4383H4.16523C3.37823 16.4383 2.74023 15.8003 2.74023 15.0133V8.31184C2.74023 7.90745 2.91205 7.5221 3.21286 7.25184L8.43786 2.55738ZM9.70772 3.26404C9.52713 3.10183 9.25333 3.10183 9.07277 3.26404L3.84777 7.95851C3.74751 8.04859 3.69023 8.17704 3.69023 8.31184V15.0133C3.69023 15.2756 3.9029 15.4883 4.16523 15.4883H6.54023C6.80257 15.4883 7.01523 15.2756 7.01523 15.0133V11.6883C7.01523 10.9012 7.65323 10.2633 8.44023 10.2633H10.3402C11.1272 10.2633 11.7652 10.9012 11.7652 11.6883V15.0133C11.7652 15.2756 11.9779 15.4883 12.2402 15.4883H14.6152C14.8775 15.4883 15.0902 15.2756 15.0902 15.0133V8.31184C15.0902 8.17704 15.0329 8.04859 14.9327 7.95851L9.70772 3.26404Z" fill="#F6F6F6"/>
</svg>
