<svg width="38" height="38" viewBox="0 0 38 38" fill="none" xmlns="http://www.w3.org/2000/svg">
<path d="M25.5437 7.14297C29.3066 7.14297 32.3645 10.2082 32.3645 13.9934C32.3645 15.9379 31.5555 17.6895 30.2641 18.9363L19.25 30.0543L8.04297 18.7359C6.87031 17.5039 6.14297 15.834 6.14297 13.9934C6.14297 10.2082 9.19336 7.14297 12.9637 7.14297C15.7988 7.14297 18.2258 8.87969 19.2574 11.3586C20.2742 8.88711 22.7086 7.14297 25.5437 7.14297ZM25.5437 6C23.0352 6 20.7344 7.17266 19.25 9.10234C17.7656 7.17266 15.4648 6 12.9562 6C8.56992 6 5 9.58477 5 13.9934C5 16.0641 5.78672 18.0309 7.21914 19.5301L18.441 30.8633L19.25 31.6797L20.059 30.8633L31.0656 19.7453C32.6242 18.2387 33.5 16.1902 33.5 13.9934C33.5 9.58477 29.9301 6 25.5437 6Z" fill="#F6F6F6"/>
</svg>
