<svg width="32" height="32" viewBox="0 0 32 32" fill="none" xmlns="http://www.w3.org/2000/svg">
<g clip-path="url(#clip0_659_9352)">
<path d="M6.70062 17.7998H15.7006C15.9113 17.7997 16.1153 17.8735 16.2771 18.0084C16.4389 18.1432 16.5483 18.3305 16.5862 18.5378L16.6006 18.6998V27.6998C16.601 27.9247 16.5172 28.1416 16.3657 28.3078C16.2142 28.474 16.0059 28.5774 15.7819 28.5977C15.558 28.618 15.3345 28.5538 15.1555 28.4176C14.9766 28.2813 14.8551 28.0831 14.815 27.8618L14.8006 27.6998V20.8706L5.53782 30.137C5.37908 30.2964 5.16637 30.3906 4.94162 30.401C4.71686 30.4114 4.49636 30.3373 4.32357 30.1932C4.15078 30.049 4.03823 29.8454 4.00811 29.6225C3.97798 29.3995 4.03246 29.1733 4.16082 28.9886L4.26342 28.8626L13.5262 19.5998H6.70062C6.48997 19.5998 6.28598 19.526 6.12415 19.3911C5.96233 19.2563 5.85294 19.069 5.81502 18.8618L5.80062 18.6998C5.80055 18.4891 5.87437 18.2851 6.00922 18.1233C6.14407 17.9615 6.33141 17.8521 6.53862 17.8142L6.70062 17.7998ZM32.5378 1.86255C32.6866 2.01169 32.7784 2.20832 32.7972 2.41817C32.8159 2.62802 32.7604 2.83779 32.6404 3.01095L32.5378 3.13695L23.2714 12.3998H30.1006C30.3113 12.3997 30.5153 12.4735 30.6771 12.6084C30.8389 12.7432 30.9483 12.9305 30.9862 13.1378L31.0006 13.2998C31.0007 13.5104 30.9269 13.7144 30.792 13.8762C30.6572 14.038 30.4698 14.1474 30.2626 14.1854L30.1006 14.1998H21.0646L20.9404 14.1854L20.7568 14.1314L20.62 14.0594L20.521 13.9874L20.4634 13.937L20.3968 13.8614L20.3212 13.7498L20.2672 13.6418L20.2312 13.5302L20.2204 13.4888C20.2071 13.4266 20.2005 13.3633 20.2006 13.2998L20.2096 13.433L20.2042 13.3772L20.2006 4.29975C20.2002 4.07485 20.284 3.85794 20.4355 3.69174C20.5871 3.52554 20.7953 3.4221 21.0193 3.40178C21.2433 3.38146 21.4668 3.44573 21.6457 3.58195C21.8247 3.71816 21.9462 3.91645 21.9862 4.13775L22.0006 4.29975V11.1254L31.2634 1.86255C31.347 1.77874 31.4463 1.71224 31.5557 1.66687C31.665 1.6215 31.7822 1.59814 31.9006 1.59814C32.019 1.59814 32.1362 1.6215 32.2456 1.66687C32.3549 1.71224 32.4542 1.77874 32.5378 1.86255Z" fill="white"/>
</g>
<defs>
<clipPath id="clip0_659_9352">
<rect width="32" height="32" fill="white"/>
</clipPath>
</defs>
</svg>
