<svg width="60" height="60" viewBox="0 0 60 60" fill="none" xmlns="http://www.w3.org/2000/svg">
<path d="M30 3.75C15.5025 3.75 3.75 15.5025 3.75 30C3.75 44.4975 15.5025 56.25 30 56.25C44.4975 56.25 56.25 44.4975 56.25 30C56.25 15.5025 44.4975 3.75 30 3.75ZM6.25 30C6.25003 26.122 7.19969 22.3029 9.01601 18.8766C10.8323 15.4502 13.4601 12.5207 16.6696 10.344C19.8792 8.16738 23.5729 6.80978 27.4282 6.38983C31.2834 5.96989 35.1828 6.50038 38.7857 7.93496C42.3887 9.36954 45.5855 11.6646 48.0969 14.6195C50.6084 17.5745 52.358 21.0995 53.193 24.8866C54.0279 28.6736 53.9229 32.6076 52.8869 36.3447C51.8509 40.0818 49.9156 43.5083 47.25 46.325C46.8405 44.0847 45.7806 42.0145 44.2025 40.3725C42.345 38.4375 40.005 37.3025 37.95 36.6625C36.6325 36.2525 35.3575 36.72 34.475 37.3125C33.5175 37.96 31.9425 38.75 30 38.75C28.0575 38.75 26.4825 37.96 25.525 37.315C24.6425 36.7175 23.3675 36.2525 22.05 36.6625C19.995 37.3025 17.655 38.4375 15.7975 40.3725C14.2189 42.0135 13.1582 44.0828 12.7475 46.3225C8.56841 41.9164 6.24226 36.0728 6.25 30ZM15.0125 48.425C15.1525 45.575 16.2025 43.5575 17.6 42.105C19.075 40.5675 21 39.6075 22.795 39.0475C23.115 38.9475 23.5925 39.025 24.1275 39.3875C25.32 40.1925 27.3825 41.25 30 41.25C32.6175 41.25 34.68 40.1925 35.8725 39.3875C36.4075 39.025 36.885 38.9475 37.205 39.0475C39.0025 39.6075 40.9225 40.5675 42.4 42.105C43.7975 43.555 44.8475 45.5775 44.9875 48.425C40.7563 51.8771 35.4608 53.7585 30 53.75C24.5392 53.7585 19.2437 51.8771 15.0125 48.425ZM23.75 25C23.75 21.5375 26.45 18.75 30 18.75C33.55 18.75 36.25 21.5375 36.25 25C36.25 28.4625 33.55 31.25 30 31.25C26.45 31.25 23.75 28.465 23.75 25ZM30 16.25C28.8481 16.24 27.7058 16.4595 26.6397 16.8957C25.5736 17.3319 24.605 17.976 23.7905 18.7905C22.976 19.605 22.3319 20.5736 21.8957 21.6397C21.4595 22.7058 21.24 23.8481 21.25 25C21.25 29.82 25.0475 33.75 30 33.75C34.9525 33.75 38.75 29.82 38.75 25C38.75 20.18 34.9525 16.25 30 16.25Z" fill="black"/>
</svg>
