<svg width="25" height="25" viewBox="0 0 25 25" fill="none" xmlns="http://www.w3.org/2000/svg">
<g clip-path="url(#clip0_738_3927)">
<path d="M22.7795 17.4249C22.9203 17.5671 22.9993 17.7591 22.9993 17.9593C22.9993 18.1594 22.9203 18.3514 22.7795 18.4936L20.5295 20.7436C20.3855 20.8812 20.1943 20.9584 19.9951 20.9593C19.8956 20.9588 19.797 20.9397 19.7045 20.903C19.568 20.8456 19.4515 20.7491 19.3698 20.6257C19.288 20.5022 19.2447 20.3573 19.2451 20.2093V18.7093C18.1847 18.6941 17.1427 18.43 16.2031 17.9382C15.2635 17.4464 14.4526 16.7407 13.8357 15.878L9.92637 10.4124C9.44124 9.73296 8.80135 9.17879 8.05961 8.79569C7.31786 8.4126 6.49557 8.21157 5.66074 8.20925H3.49512C3.2962 8.20925 3.10544 8.13024 2.96479 7.98958C2.82413 7.84893 2.74512 7.65817 2.74512 7.45925C2.74512 7.26034 2.82413 7.06958 2.96479 6.92892C3.10544 6.78827 3.2962 6.70925 3.49512 6.70925H5.66074C6.73547 6.71114 7.7943 6.96892 8.74962 7.46125C9.70495 7.95359 10.5293 8.66633 11.1545 9.5405L15.0639 15.0061C15.5396 15.6752 16.1658 16.2231 16.892 16.6058C17.6183 16.9885 18.4243 17.1952 19.2451 17.2093V15.7093C19.2447 15.5612 19.288 15.4163 19.3698 15.2928C19.4515 15.1694 19.568 15.0729 19.7045 15.0155C19.843 14.9615 19.994 14.9478 20.14 14.976C20.286 15.0042 20.4211 15.0731 20.5295 15.1749L22.7795 17.4249ZM13.9014 10.7405C13.9819 10.7981 14.073 10.8393 14.1695 10.8615C14.2659 10.8838 14.3659 10.8867 14.4635 10.8702C14.5611 10.8536 14.6545 10.8179 14.7382 10.7651C14.8219 10.7122 14.8944 10.6433 14.9514 10.5624L15.0639 10.4124C15.5396 9.74333 16.1658 9.19539 16.892 8.81271C17.6183 8.43004 18.4243 8.22333 19.2451 8.20925V9.70925C19.2447 9.85732 19.288 10.0022 19.3698 10.1257C19.4515 10.2491 19.568 10.3456 19.7045 10.403C19.797 10.4397 19.8956 10.4588 19.9951 10.4593C20.1943 10.4584 20.3855 10.3812 20.5295 10.2436L22.7795 7.99363C22.9203 7.85143 22.9993 7.65939 22.9993 7.45925C22.9993 7.25912 22.9203 7.06707 22.7795 6.92488L20.5295 4.67488C20.4211 4.57313 20.286 4.50417 20.14 4.47597C19.994 4.44776 19.843 4.46147 19.7045 4.5155C19.568 4.57288 19.4515 4.66938 19.3698 4.79283C19.288 4.91629 19.2447 5.06118 19.2451 5.20925V6.70925C18.1847 6.72441 17.1427 6.98853 16.2031 7.48032C15.2635 7.97211 14.4526 8.6778 13.8357 9.5405L13.7326 9.6905C13.6745 9.77043 13.6327 9.86106 13.6098 9.95718C13.5868 10.0533 13.583 10.153 13.5987 10.2506C13.6144 10.3482 13.6492 10.4417 13.7011 10.5257C13.7531 10.6098 13.8211 10.6828 13.9014 10.7405ZM11.0889 14.678C11.0084 14.6204 10.9173 14.5792 10.8208 14.557C10.7243 14.5347 10.6244 14.5318 10.5268 14.5483C10.4291 14.5649 10.3358 14.6006 10.252 14.6535C10.1683 14.7063 10.0959 14.7752 10.0389 14.8561L9.92637 15.0061C9.44124 15.6855 8.80135 16.2397 8.05961 16.6228C7.31786 17.0059 6.49557 17.2069 5.66074 17.2093H3.49512C3.2962 17.2093 3.10544 17.2883 2.96479 17.4289C2.82413 17.5696 2.74512 17.7603 2.74512 17.9593C2.74512 18.1582 2.82413 18.3489 2.96479 18.4896C3.10544 18.6302 3.2962 18.7093 3.49512 18.7093H5.66074C6.73547 18.7074 7.7943 18.4496 8.74962 17.9573C9.70495 17.4649 10.5293 16.7522 11.1545 15.878L11.2576 15.728C11.3157 15.6481 11.3575 15.5574 11.3805 15.4613C11.4034 15.3652 11.4072 15.2655 11.3915 15.1679C11.3758 15.0703 11.341 14.9768 11.2891 14.8928C11.2371 14.8087 11.1691 14.7357 11.0889 14.678Z" fill="#F9F9F9" fill-opacity="0.5"/>
</g>
<defs>
<clipPath id="clip0_738_3927">
<rect width="24" height="24" fill="white" transform="translate(0.495117 0.709229)"/>
</clipPath>
</defs>
</svg>
