<svg width="25" height="25" viewBox="0 0 25 25" fill="none" xmlns="http://www.w3.org/2000/svg">
<path d="M21.4951 18.7092H16.4951V16.7092H20.4951V7.70923H4.49512V16.7092H9.49512V13.7092L14.4951 17.7092L9.49512 21.7092V18.7092H3.49512C3.2299 18.7092 2.97555 18.6039 2.78801 18.4163C2.60047 18.2288 2.49512 17.9744 2.49512 17.7092V6.70923C2.49512 6.44401 2.60047 6.18966 2.78801 6.00212C2.97555 5.81458 3.2299 5.70923 3.49512 5.70923H21.4951C21.7603 5.70923 22.0147 5.81458 22.2022 6.00212C22.3898 6.18966 22.4951 6.44401 22.4951 6.70923V17.7092C22.4951 17.9744 22.3898 18.2288 22.2022 18.4163C22.0147 18.6039 21.7603 18.7092 21.4951 18.7092Z" fill="#F9F9F9" fill-opacity="0.5"/>
</svg>
