<svg width="24" height="24" viewBox="0 0 24 24" fill="none" xmlns="http://www.w3.org/2000/svg">
<g clip-path="url(#clip0_335_2838)">
<path d="M22.2844 16.7157C22.4252 16.8578 22.5042 17.0499 22.5042 17.25C22.5042 17.4502 22.4252 17.6422 22.2844 17.7844L20.0344 20.0344C19.8904 20.172 19.6992 20.2492 19.5 20.25C19.4005 20.2496 19.3019 20.2305 19.2094 20.1938C19.0729 20.1364 18.9564 20.0399 18.8747 19.9164C18.7929 19.793 18.7495 19.6481 18.75 19.5V18C17.6896 17.9849 16.6476 17.7207 15.708 17.229C14.7683 16.7372 13.9574 16.0315 13.3406 15.1688L9.43125 9.70315C8.94613 9.02373 8.30623 8.46956 7.56449 8.08647C6.82274 7.70337 6.00046 7.50235 5.16562 7.50002H3C2.80109 7.50002 2.61032 7.42101 2.46967 7.28035C2.32902 7.1397 2.25 6.94894 2.25 6.75002C2.25 6.55111 2.32902 6.36035 2.46967 6.2197C2.61032 6.07904 2.80109 6.00002 3 6.00002H5.16562C6.24035 6.00191 7.29918 6.25969 8.2545 6.75202C9.20983 7.24436 10.0342 7.9571 10.6594 8.83127L14.5687 14.2969C15.0444 14.966 15.6707 15.5139 16.3969 15.8966C17.1232 16.2792 17.9292 16.4859 18.75 16.5V15C18.7495 14.852 18.7929 14.7071 18.8747 14.5836C18.9564 14.4601 19.0729 14.3637 19.2094 14.3063C19.3479 14.2522 19.4989 14.2385 19.6449 14.2667C19.7909 14.2949 19.9259 14.3639 20.0344 14.4657L22.2844 16.7157ZM13.4062 10.0313C13.4867 10.0889 13.5779 10.1301 13.6743 10.1523C13.7708 10.1746 13.8707 10.1775 13.9684 10.1609C14.066 10.1444 14.1593 10.1087 14.2431 10.0558C14.3268 10.003 14.3993 9.93412 14.4562 9.85315L14.5687 9.70315C15.0444 9.0341 15.6707 8.48616 16.3969 8.10348C17.1232 7.72081 17.9292 7.5141 18.75 7.50002V9.00002C18.7495 9.14809 18.7929 9.29299 18.8747 9.41644C18.9564 9.5399 19.0729 9.6364 19.2094 9.69378C19.3019 9.73051 19.4005 9.74959 19.5 9.75002C19.6992 9.74918 19.8904 9.67201 20.0344 9.5344L22.2844 7.2844C22.4252 7.1422 22.5042 6.95016 22.5042 6.75002C22.5042 6.54989 22.4252 6.35785 22.2844 6.21565L20.0344 3.96565C19.9259 3.86391 19.7909 3.79494 19.6449 3.76674C19.4989 3.73853 19.3479 3.75224 19.2094 3.80627C19.0729 3.86365 18.9564 3.96015 18.8747 4.08361C18.7929 4.20706 18.7495 4.35196 18.75 4.50002V6.00002C17.6896 6.01519 16.6476 6.27931 15.708 6.77109C14.7683 7.26288 13.9574 7.96857 13.3406 8.83127L13.2375 8.98128C13.1794 9.06121 13.1376 9.15183 13.1147 9.24795C13.0917 9.34407 13.0879 9.44378 13.1036 9.54136C13.1193 9.63893 13.1541 9.73244 13.206 9.81652C13.258 9.9006 13.326 9.97358 13.4062 10.0313ZM10.5938 13.9688C10.5133 13.9111 10.4221 13.87 10.3257 13.8477C10.2292 13.8255 10.1293 13.8226 10.0316 13.8391C9.93403 13.8557 9.84066 13.8914 9.75692 13.9442C9.67318 13.997 9.60073 14.0659 9.54375 14.1469L9.43125 14.2969C8.94613 14.9763 8.30623 15.5305 7.56449 15.9136C6.82274 16.2967 6.00046 16.4977 5.16562 16.5H3C2.80109 16.5 2.61032 16.579 2.46967 16.7197C2.32902 16.8603 2.25 17.0511 2.25 17.25C2.25 17.4489 2.32902 17.6397 2.46967 17.7804C2.61032 17.921 2.80109 18 3 18H5.16562C6.24035 17.9981 7.29918 17.7404 8.2545 17.248C9.20983 16.7557 10.0342 16.043 10.6594 15.1688L10.7625 15.0188C10.8206 14.9388 10.8624 14.8482 10.8853 14.7521C10.9083 14.656 10.9121 14.5563 10.8964 14.4587C10.8807 14.3611 10.8459 14.2676 10.794 14.1835C10.742 14.0995 10.674 14.0265 10.5938 13.9688Z" fill="#F6F6F6"/>
</g>
<defs>
<clipPath id="clip0_335_2838">
<rect width="24" height="24" fill="white"/>
</clipPath>
</defs>
</svg>
