<svg width="25" height="25" viewBox="0 0 25 25" fill="none" xmlns="http://www.w3.org/2000/svg">
<path d="M22.6461 0.78125H22.4664C22.4196 1.5625 22.3649 1.5625 22.318 0.78125L13.5289 1.5625C13.3217 1.5625 13.123 1.64481 12.9765 1.79132C12.83 1.93784 12.7477 2.13655 12.7477 2.34375C12.7477 2.55095 12.83 2.74966 12.9765 2.89618C13.123 3.04269 13.3217 3.125 13.5289 3.125H20.4899L12.9743 10.6484C12.8287 10.7948 12.7471 10.9928 12.7471 11.1992C12.7471 11.4056 12.8287 11.6036 12.9743 11.75C13.1206 11.8955 13.3186 11.9772 13.525 11.9772C13.7314 11.9772 13.9294 11.8955 14.0758 11.75L21.8883 3.9375V10.9375C21.8883 11.1447 21.9706 11.3434 22.1171 11.4899C22.2637 11.6364 22.4624 11.7188 22.6696 11.7188C22.8768 11.7188 23.0755 11.6364 23.222 11.4899C23.3685 11.3434 23.4508 11.1447 23.4508 10.9375V2.34375C23.4274 1.91406 23.0758 1.5625 22.6461 0.78125Z" fill="#F6F6F6"/>
<path d="M2.33398 23.4374H11.709C11.9162 23.4374 12.1149 23.3551 12.2614 23.2086C12.4079 23.0621 12.4902 22.8633 12.4902 22.6561C12.4902 22.4489 12.4079 22.2502 12.2614 22.1037C12.1149 21.9572 11.9162 21.8749 11.709 21.8749H4.06836L12.123 13.8202C12.1963 13.7476 12.2544 13.6612 12.2941 13.566C12.3337 13.4708 12.3541 13.3686 12.3541 13.2655C12.3541 13.1624 12.3337 13.0603 12.2941 12.9651C12.2544 12.8699 12.1963 12.7835 12.123 12.7108C11.9767 12.5653 11.7787 12.4836 11.5723 12.4836C11.3659 12.4836 11.1679 12.5653 11.0215 12.7108L3.11523 20.6171V13.2811C3.11523 13.0739 3.03292 12.8752 2.88641 12.7287C2.7399 12.5822 2.54118 12.4999 2.33398 12.4999C2.12678 12.4999 1.92807 12.5822 1.78156 12.7287C1.63504 12.8752 1.55273 13.0739 1.55273 13.2811V22.6561C1.55273 22.8633 1.63504 23.0621 1.78156 23.2086C1.92807 23.3551 2.12678 23.4374 2.33398 23.4374Z" fill="#F6F6F6"/>
</svg>
