<svg width="30" height="31" viewBox="0 0 30 31" fill="none" xmlns="http://www.w3.org/2000/svg">
<path d="M16.8652 27.6876C16.6741 27.6872 16.4876 27.6283 16.3309 27.5189L6.95586 20.9564C6.83167 20.8702 6.73016 20.7553 6.65996 20.6215C6.58977 20.4876 6.55298 20.3388 6.55273 20.1876V10.8126C6.55298 10.6615 6.58977 10.5126 6.65996 10.3788C6.73016 10.2449 6.83167 10.13 6.95586 10.0439L16.3309 3.48137C16.4675 3.38889 16.6262 3.33412 16.7908 3.3226C16.9554 3.31108 17.1201 3.34321 17.2684 3.41574C17.4265 3.49103 17.5603 3.6091 17.6548 3.75657C17.7492 3.90404 17.8005 4.07501 17.8027 4.25012V26.7501C17.8031 26.9223 17.756 27.0912 17.6667 27.2384C17.5774 27.3856 17.4493 27.5053 17.2965 27.5845C17.163 27.6529 17.0152 27.6882 16.8652 27.6876ZM8.42773 19.7001L15.9277 24.9501V6.05012L8.42773 11.3001V19.7001Z" fill="#F6F6F6"/>
<path d="M7.49023 21.125H3.74023C2.99431 21.125 2.27894 20.8287 1.7515 20.3012C1.22405 19.7738 0.927734 19.0584 0.927734 18.3125V12.6875C0.927734 11.9416 1.22405 11.2262 1.7515 10.6988C2.27894 10.1713 2.99431 9.875 3.74023 9.875H7.49023C7.73887 9.875 7.97733 9.97377 8.15315 10.1496C8.32896 10.3254 8.42773 10.5639 8.42773 10.8125V20.1875C8.42773 20.4361 8.32896 20.6746 8.15315 20.8504C7.97733 21.0262 7.73887 21.125 7.49023 21.125ZM3.74023 11.75C3.49159 11.75 3.25314 11.8488 3.07732 12.0246C2.90151 12.2004 2.80273 12.4389 2.80273 12.6875V18.3125C2.80273 18.5611 2.90151 18.7996 3.07732 18.9754C3.25314 19.1512 3.49159 19.25 3.74023 19.25H6.55273V11.75H3.74023Z" fill="#F6F6F6"/>
<path d="M16.8652 20.1876V18.3126C17.4211 18.3122 17.9644 18.1469 18.4265 17.8379C18.8885 17.5288 19.2486 17.0897 19.4613 16.5761C19.674 16.0625 19.7297 15.4974 19.6214 14.9521C19.513 14.4069 19.2456 13.906 18.8527 13.5126L20.184 12.1814C20.8412 12.837 21.289 13.673 21.4706 14.5834C21.6522 15.4937 21.5593 16.4376 21.2038 17.2951C20.8484 18.1527 20.2463 18.8854 19.4739 19.4003C18.7015 19.9153 17.7936 20.1893 16.8652 20.1876Z" fill="#F6F6F6"/>
<path d="M22.1621 21.7346C21.9162 21.7335 21.6805 21.6359 21.5059 21.4627C21.3513 21.2835 21.2703 21.0525 21.279 20.816C21.2876 20.5795 21.3855 20.3551 21.5527 20.1877C22.1622 19.5783 22.6456 18.8548 22.9755 18.0586C23.3053 17.2623 23.4751 16.4089 23.4751 15.5471C23.4751 14.6852 23.3053 13.8318 22.9755 13.0355C22.6456 12.2393 22.1622 11.5158 21.5527 10.9064C21.3991 10.7271 21.3189 10.4964 21.328 10.2604C21.3371 10.0245 21.4349 9.80068 21.6019 9.63372C21.7689 9.46675 21.9927 9.36894 22.2286 9.35983C22.4646 9.35072 22.6953 9.43097 22.8746 9.58456C24.4547 11.1666 25.3422 13.3111 25.3422 15.5471C25.3422 17.783 24.4547 19.9275 22.8746 21.5096C22.7776 21.5939 22.6643 21.6574 22.5417 21.6961C22.4192 21.7348 22.29 21.7479 22.1621 21.7346Z" fill="#F6F6F6"/>
</svg>
